<svg width="900" height="214" viewBox="0 0 900 214" fill="none" xmlns="http://www.w3.org/2000/svg">
    <style>
        path {
            fill: rgb(0,20,51);
        }
        
        @media (prefers-color-scheme: dark) {
            path {
            fill: rgb(221, 235, 255);
            }
        }
    </style>
    <path fill-rule="evenodd" clip-rule="evenodd"
        d="M278.25 214C337.344 214 385.25 166.094 385.25 107C385.25 47.9055 337.344 0 278.25 0C219.156 0 171.25 47.9055 171.25 107C171.25 166.094 219.156 214 278.25 214ZM234.743 144.336C241.249 148.047 248.623 150 256.13 150H289.203C290.86 150 292.203 148.657 292.203 147V120.619C292.203 118.962 293.546 117.619 295.203 117.619H320.512C322.169 117.619 323.512 118.962 323.512 120.619V147C323.512 148.657 324.855 150 326.512 150H340.25C341.907 150 343.25 148.657 343.25 147V68.6746C343.25 67.0177 341.907 65.6746 340.25 65.6746H327.134C325.5 65.6746 324.167 66.9819 324.134 68.6153L323.57 97.1387C323.538 98.7721 322.204 100.079 320.571 100.079H292.48C290.823 100.079 289.48 101.423 289.48 103.079V112.595C289.48 114.252 288.137 115.595 286.48 115.595H274.103C272.447 115.595 271.103 116.938 271.103 118.595V127.034C271.103 128.691 269.76 130.034 268.103 130.034H256.13C252.15 130.034 248.239 128.998 244.79 127.031C241.34 125.063 238.472 122.233 236.473 118.822C234.473 115.412 233.412 111.541 233.395 107.596C233.378 103.651 234.406 99.7715 236.376 96.3442C238.346 92.9168 241.19 90.0622 244.622 88.0656C248.055 86.069 251.956 85.0005 255.936 84.9669C259.915 84.9333 263.834 85.9357 267.301 87.8739C269.876 89.314 271.239 90.5189 272.602 92.4348C273.495 93.69 275.128 94.2203 276.523 93.5665L290.014 87.2413C291.622 86.4874 292.234 84.5032 291.206 83.0548C287.546 77.8958 282.765 73.5968 277.199 70.4844C270.661 66.8287 263.27 64.9381 255.764 65.0015C248.258 65.065 240.9 67.0802 234.426 70.8458C227.953 74.6114 222.59 79.9954 218.874 86.4596C215.157 92.9237 213.218 100.241 213.25 107.681C213.282 115.121 215.284 122.422 219.056 128.855C222.827 135.287 228.237 140.625 234.743 144.336Z"
    />
    <path d="M0 154V62.5H24.9375V98.0625H58.1875V62.5H83.1875V154H58.1875V116.75H24.9375V154H0Z"
    />
    <path d="M103.25 154V62.5H128.438V154H103.25Z" />
    <path
        d="M433.562 124.438C437.396 128.688 441.062 131.833 444.562 133.875C448.229 135.958 451.812 137 455.312 137C458.604 137 461.333 136.104 463.5 134.312C465.667 132.521 466.75 130.25 466.75 127.5C466.75 124.5 465.854 122.146 464.062 120.438C462.146 118.812 457.917 117.125 451.375 115.375C442.458 112.958 436.146 109.833 432.438 106C428.688 102.083 426.812 96.75 426.812 90C426.812 81.25 429.75 74.125 435.625 68.625C441.417 63.0833 449 60.3125 458.375 60.3125C463.667 60.3125 468.458 61 472.75 62.375C477.25 63.75 481.521 65.7917 485.562 68.5L477.75 86.4375C475 84.0625 472.083 82.2292 469 80.9375C466 79.7292 463.062 79.125 460.188 79.125C457.271 79.125 454.833 79.8542 452.875 81.3125C451 82.6875 450.062 84.5208 450.062 86.8125C450.062 89.0208 450.875 90.8542 452.5 92.3125C454.208 93.6875 457.417 95 462.125 96.25C462.292 96.2917 462.438 96.3333 462.562 96.375C462.688 96.375 462.875 96.4167 463.125 96.5C473.292 99.2083 480 102.25 483.25 105.625C485.375 107.75 487.042 110.438 488.25 113.688C489.333 116.771 489.875 120.271 489.875 124.188C489.875 133.854 486.688 141.667 480.312 147.625C473.896 153.5 465.396 156.438 454.812 156.438C448.312 156.438 442.5 155.375 437.375 153.25C432.292 151.125 427.271 147.708 422.312 143L433.562 124.438Z"
    />
    <path d="M504.5 154V62.5H529.688V154H504.5Z" />
    <path
        d="M549.875 154V62.5H573.938L608.5 109.562C609.375 110.854 610.479 112.792 611.812 115.375C613.521 118.708 615.188 122.146 616.812 125.688C616.188 120.896 615.833 117.542 615.75 115.625C615.5 112.625 615.375 109.979 615.375 107.688V62.5H639.312V154H615.375L580.812 106.75C580.312 106.083 579.208 104.125 577.5 100.875C576 98.2083 574.333 94.8333 572.5 90.75C572.917 94 573.312 97.375 573.688 100.875C573.854 104.792 573.938 107.438 573.938 108.812V154H549.875Z"
    />
    <path
        d="M752.938 108.438C752.938 115.062 751.75 121.25 749.375 127C747 132.625 743.458 137.75 738.75 142.375C734.083 146.875 728.75 150.333 722.75 152.75C716.458 155.208 710.229 156.438 704.062 156.438C697.812 156.438 691.583 155.208 685.375 152.75C679.25 150.292 673.958 146.833 669.5 142.375C665 138.083 661.458 132.917 658.875 126.875C656.375 120.958 655.125 114.812 655.125 108.438C655.125 102.062 656.375 95.9167 658.875 90C661.458 83.9583 665 78.7917 669.5 74.5C674.083 69.9167 679.375 66.4167 685.375 64C691.208 61.625 697.438 60.4375 704.062 60.4375C710.688 60.4375 716.958 61.6458 722.875 64.0625C728.792 66.4375 734.062 69.9167 738.688 74.5C743.354 79.0833 746.917 84.25 749.375 90C751.75 95.75 752.938 101.896 752.938 108.438ZM704.062 135.312C710.938 135.312 716.688 132.75 721.312 127.625C723.604 125.083 725.292 122.229 726.375 119.062C727.458 115.896 728 112.354 728 108.438C728 100.812 725.729 94.4167 721.188 89.25C716.562 84.125 710.854 81.5625 704.062 81.5625C697.104 81.5625 691.375 84.125 686.875 89.25C682.375 94.375 680.125 100.771 680.125 108.438C680.125 116.396 682.333 122.833 686.75 127.75C691.292 132.792 697.062 135.312 704.062 135.312Z"
    />
    <path
        d="M776.828 137.312C776.828 134.625 777.719 132.391 779.5 130.609C781.312 128.797 783.547 127.891 786.203 127.891C788.953 127.891 791.234 128.797 793.047 130.609C794.828 132.391 795.719 134.625 795.719 137.312C795.719 140.031 794.828 142.281 793.047 144.062C791.141 145.906 788.859 146.828 786.203 146.828C783.641 146.828 781.406 145.906 779.5 144.062C777.719 142.281 776.828 140.031 776.828 137.312Z"
        fill-opacity="0.25" />
    <path
        d="M821.969 76.375H840.719V120.906C840.719 125.906 840.391 129.625 839.734 132.062C839.203 134.5 838.188 136.797 836.688 138.953C834.656 141.672 832.312 143.625 829.656 144.812C826.938 146.156 823.812 146.828 820.281 146.828C816.031 146.828 812.188 145.906 808.75 144.062C805.5 142.312 802.609 139.578 800.078 135.859L811.516 125.5C811.797 127.625 812.438 129.203 813.438 130.234C814.562 131.297 815.875 131.828 817.375 131.828C819.219 131.828 820.469 130.844 821.125 128.875C821.688 126.875 821.969 121.953 821.969 114.109V76.375Z"
        fill-opacity="0.25" />
    <path
        d="M857.641 122.828C860.516 126.016 863.266 128.375 865.891 129.906C868.641 131.469 871.328 132.25 873.953 132.25C876.422 132.25 878.469 131.578 880.094 130.234C881.719 128.891 882.531 127.188 882.531 125.125C882.531 122.875 881.859 121.109 880.516 119.828C879.078 118.609 875.906 117.344 871 116.031C864.312 114.219 859.578 111.875 856.797 109C853.984 106.062 852.578 102.062 852.578 97C852.578 90.4375 854.781 85.0938 859.188 80.9688C863.531 76.8125 869.219 74.7344 876.25 74.7344C880.219 74.7344 883.812 75.25 887.031 76.2812C890.406 77.3125 893.609 78.8438 896.641 80.875L890.781 94.3281C888.719 92.5469 886.531 91.1719 884.219 90.2031C881.969 89.2969 879.766 88.8438 877.609 88.8438C875.422 88.8438 873.594 89.3906 872.125 90.4844C870.719 91.5156 870.016 92.8906 870.016 94.6094C870.016 96.2656 870.625 97.6406 871.844 98.7344C873.125 99.7656 875.531 100.75 879.062 101.688C879.188 101.719 879.297 101.75 879.391 101.781C879.484 101.781 879.625 101.812 879.812 101.875C887.438 103.906 892.469 106.188 894.906 108.719C896.5 110.312 897.75 112.328 898.656 114.766C899.469 117.078 899.875 119.703 899.875 122.641C899.875 129.891 897.484 135.75 892.703 140.219C887.891 144.625 881.516 146.828 873.578 146.828C868.703 146.828 864.344 146.031 860.5 144.438C856.688 142.844 852.922 140.281 849.203 136.75L857.641 122.828Z"
        fill-opacity="0.25" />
</svg>